<svg xmlns="http://www.w3.org/2000/svg" version="1.1" xmlns:xlink="http://www.w3.org/1999/xlink" xmlns:svgjs="http://svgjs.dev/svgjs" width="1000" height="232" viewBox="0 0 1000 232"><g transform="matrix(1,0,0,1,-0.6060606060606233,0.46520876984097015)"><svg viewBox="0 0 396 92" data-background-color="#ffffff" preserveAspectRatio="xMidYMid meet" height="232" width="1000" xmlns="http://www.w3.org/2000/svg" xmlns:xlink="http://www.w3.org/1999/xlink"><g id="tight-bounds" transform="matrix(1,0,0,1,0.2400000000000091,-0.1844793397645219)"><svg viewBox="0 0 395.52 92.36895867952903" height="92.36895867952903" width="395.52"><g><svg viewBox="0 0 432.178575108082 100.93012981982241" height="92.36895867952903" width="395.52"><g><svg viewBox="0 0 432.178575108082 100.93012981982241" height="100.93012981982241" width="432.178575108082"><g id="textblocktransform"><svg viewBox="0 0 432.178575108082 100.93012981982241" height="100.93012981982241" width="432.178575108082" id="textblock"><g><svg viewBox="0 0 432.178575108082 58.4098" height="58.4098" width="432.178575108082"><g><svg><g></g><g></g></svg></g><g><svg><g><svg></svg></g><g></g></svg></g><g id="text-0"><svg viewBox="0 0 432.178575108082 58.4098" height="58.4098" width="432.178575108082"><g transform="matrix(1,0,0,1,0,0)"><svg width="329.26300000000003" viewBox="1.45 -35.75 203.49 36.1" height="58.4098" data-palette-color="#010c80"><path d="M27.2-31.7L25.1-28.05Q24.5-28.75 23.5-29.4 22.5-30.05 21.25-30.58 20-31.1 18.53-31.43 17.05-31.75 15.45-31.75L15.45-31.75Q11.35-31.75 9.4-30.2 7.45-28.65 7.45-25.95L7.45-25.95Q7.45-24.05 8.45-22.95 9.45-21.85 11.53-21.15 13.6-20.45 16.8-19.7L16.8-19.7Q20.5-18.9 23.2-17.75 25.9-16.6 27.35-14.68 28.8-12.75 28.8-9.55L28.8-9.55Q28.8-7 27.83-5.13 26.85-3.25 25.1-2.02 23.35-0.8 21-0.23 18.65 0.35 15.9 0.35L15.9 0.35Q13.2 0.35 10.63-0.23 8.05-0.8 5.75-1.9 3.45-3 1.45-4.65L1.45-4.65 3.6-8.45Q4.4-7.6 5.68-6.78 6.95-5.95 8.58-5.25 10.2-4.55 12.1-4.13 14-3.7 16-3.7L16-3.7Q19.8-3.7 21.9-5.08 24-6.45 24-9.1L24-9.1Q24-11.1 22.83-12.3 21.65-13.5 19.35-14.3 17.05-15.1 13.75-15.9L13.75-15.9Q10.15-16.8 7.7-17.88 5.25-18.95 4.03-20.7 2.8-22.45 2.8-25.25L2.8-25.25Q2.8-28.65 4.45-31 6.1-33.35 9-34.55 11.9-35.75 15.55-35.75L15.55-35.75Q17.95-35.75 20.03-35.25 22.1-34.75 23.9-33.85 25.7-32.95 27.2-31.7L27.2-31.7ZM32.4-18L32.4-18Q32.4-21.25 33.52-24.38 34.65-27.5 36.82-30.08 39-32.65 42.15-34.18 45.3-35.7 49.3-35.7L49.3-35.7Q54.05-35.7 57.45-33.52 60.85-31.35 62.5-27.95L62.5-27.95 58.95-25.65Q57.9-27.9 56.27-29.23 54.65-30.55 52.77-31.1 50.9-31.65 49.1-31.65L49.1-31.65Q46.15-31.65 43.87-30.45 41.6-29.25 40.05-27.25 38.5-25.25 37.72-22.78 36.95-20.3 36.95-17.8L36.95-17.8Q36.95-15.05 37.87-12.5 38.8-9.95 40.45-8 42.1-6.05 44.35-4.9 46.6-3.75 49.25-3.75L49.25-3.75Q51.1-3.75 53.05-4.4 55-5.05 56.7-6.43 58.4-7.8 59.4-10L59.4-10 63.15-7.95Q62.05-5.3 59.75-3.45 57.45-1.6 54.62-0.65 51.8 0.3 49.05 0.3L49.05 0.3Q45.4 0.3 42.35-1.28 39.3-2.85 37.07-5.48 34.85-8.1 33.62-11.38 32.4-14.65 32.4-18ZM92.84-35.5L97.34-35.5 97.34 0 92.84 0 92.84-16.15 73.3-16.15 73.3 0 68.8 0 68.8-35.5 73.3-35.5 73.3-20.15 92.84-20.15 92.84-35.5ZM120.24 0.25L120.24 0.25Q116.49 0.25 113.44-1.25 110.39-2.75 108.17-5.33 105.94-7.9 104.74-11.13 103.54-14.35 103.54-17.75L103.54-17.75Q103.54-21.3 104.82-24.53 106.09-27.75 108.37-30.28 110.64-32.8 113.69-34.27 116.74-35.75 120.34-35.75L120.34-35.75Q124.09-35.75 127.14-34.2 130.19-32.65 132.39-30.05 134.59-27.45 135.79-24.25 136.99-21.05 136.99-17.7L136.99-17.7Q136.99-14.15 135.74-10.93 134.49-7.7 132.22-5.18 129.94-2.65 126.89-1.2 123.84 0.25 120.24 0.25ZM108.09-17.75L108.09-17.75Q108.09-15.05 108.97-12.53 109.84-10 111.44-8.05 113.04-6.1 115.29-4.95 117.54-3.8 120.29-3.8L120.29-3.8Q123.14-3.8 125.39-5 127.64-6.2 129.22-8.2 130.79-10.2 131.62-12.7 132.44-15.2 132.44-17.75L132.44-17.75Q132.44-20.45 131.57-22.95 130.69-25.45 129.07-27.43 127.44-29.4 125.22-30.53 122.99-31.65 120.29-31.65L120.29-31.65Q117.44-31.65 115.19-30.48 112.94-29.3 111.37-27.3 109.79-25.3 108.94-22.83 108.09-20.35 108.09-17.75ZM157.64 0.25L157.64 0.25Q153.89 0.25 150.84-1.25 147.79-2.75 145.56-5.33 143.34-7.9 142.14-11.13 140.94-14.35 140.94-17.75L140.94-17.75Q140.94-21.3 142.22-24.53 143.49-27.75 145.77-30.28 148.04-32.8 151.09-34.27 154.14-35.75 157.74-35.75L157.74-35.75Q161.49-35.75 164.54-34.2 167.59-32.65 169.79-30.05 171.99-27.45 173.19-24.25 174.39-21.05 174.39-17.7L174.39-17.7Q174.39-14.15 173.14-10.93 171.89-7.7 169.62-5.18 167.34-2.65 164.29-1.2 161.24 0.25 157.64 0.25ZM145.49-17.75L145.49-17.75Q145.49-15.05 146.37-12.53 147.24-10 148.84-8.05 150.44-6.1 152.69-4.95 154.94-3.8 157.69-3.8L157.69-3.8Q160.54-3.8 162.79-5 165.04-6.2 166.62-8.2 168.19-10.2 169.02-12.7 169.84-15.2 169.84-17.75L169.84-17.75Q169.84-20.45 168.97-22.95 168.09-25.45 166.47-27.43 164.84-29.4 162.62-30.53 160.39-31.65 157.69-31.65L157.69-31.65Q154.84-31.65 152.59-30.48 150.34-29.3 148.77-27.3 147.19-25.3 146.34-22.83 145.49-20.35 145.49-17.75ZM204.94 0L180.64 0 180.64-35.5 185.14-35.5 185.14-4 204.94-4 204.94 0Z" opacity="1" transform="matrix(1,0,0,1,0,0)" fill="#010c80" class="undefined-text-0" data-fill-palette-color="primary"></path></svg></g><g><svg xmlns="http://www.w3.org/2000/svg" xmlns:xlink="http://www.w3.org/1999/xlink" version="1.1" x="343.05320000000006" y="0" viewBox="2 12.338999999999997 60 39.322" enable-background="new 0 0 64 64" xml:space="preserve" height="58.4098" width="89.12537510808198" class="icon-g$-0" data-fill-palette-color="accent" id="g$-0"><g fill="#77d4fc" data-fill-palette-color="accent"><g fill="#77d4fc" data-fill-palette-color="accent"><rect x="24.617" y="30.645" width="4.794" height="14.095" fill="#77d4fc" data-fill-palette-color="accent"></rect><rect x="38.062" y="30.645" width="4.795" height="14.095" fill="#77d4fc" data-fill-palette-color="accent"></rect><rect x="51.506" y="30.645" width="4.795" height="14.095" fill="#77d4fc" data-fill-palette-color="accent"></rect><rect x="32.034" y="37.692" width="3.233" height="7.047" fill="#77d4fc" data-fill-palette-color="accent"></rect><rect x="45.649" y="37.692" width="3.232" height="7.047" fill="#77d4fc" data-fill-palette-color="accent"></rect><rect x="23.398" y="46.46" width="34.122" height="2.212" fill="#77d4fc" data-fill-palette-color="accent"></rect><rect x="19.739" y="49.448" width="41.438" height="2.213" fill="#77d4fc" data-fill-palette-color="accent"></rect><path d="M40.457 16.679L18.917 28.89 62 28.891 40.457 16.679zM40.457 18.457l15.676 8.886H24.784L40.457 18.457z" fill="#77d4fc" data-fill-palette-color="accent"></path><circle cx="40.459" cy="23.486" r="2.6" fill="#77d4fc" data-fill-palette-color="accent"></circle></g><path d="M23.398 34.481c-1.273 0.219-2.289 0.506-2.966 0.736v-4.892h-1.384v4.892c-1.262-0.428-3.663-1.064-6.804-1.064-2.397 0-4.791 0.373-7.128 1.109v-19.72c0.854-0.497 3.458-1.819 6.948-1.819 2.389 0 4.736 0.618 6.984 1.839v11.673l1.384-0.771V15.563c2.248-1.221 4.595-1.839 6.984-1.839 3.489 0 6.094 1.322 6.947 1.819v3.162l2.518-1.402-1.133-0.951v-1.56l-0.301-0.206c-0.134-0.093-3.334-2.247-8.031-2.247-2.635 0-5.214 0.689-7.677 2.033-2.462-1.344-5.041-2.033-7.676-2.033-4.698 0-7.897 2.154-8.032 2.247l-0.301 0.206v1.56L2 17.807v18.16 3.167 0.775h17.739 3.659V34.481z" fill="#77d4fc" data-fill-palette-color="accent"></path></g></svg></g></svg></g></svg></g><g transform="matrix(1,0,0,1,82.54610784564366,72.1989519448)"><svg viewBox="0 0 267.08635941679466 28.731177875022414" height="28.731177875022414" width="267.08635941679466"><g transform="matrix(1,0,0,1,0,0)"><svg width="267.08635941679466" viewBox="0.95 -37.95 481.96000000000004 51.85000000000001" height="28.731177875022414" data-palette-color="#77d4fc"><path d="M7.3-36L16.7-36 22.05-18.75 33.55-36 43-36 36.65 0 27.6 0 31.2-20.3 23.5-8.2 16.95-8.2 13.55-20.3 9.95 0 0.95 0 7.3-36ZM67.35-7.7L67.35-7.7Q67.35-6.4 68.67-6.4 70-6.4 70.9-6.9L70.9-6.9 70.65-1.25Q68.25 0.7 65.25 0.7L65.25 0.7Q59.75 0.7 59.15-3.3L59.15-3.3Q56.65 0.7 51.8 0.7L51.8 0.7Q43.6 0.7 43.6-6.35L43.6-6.35Q43.6-7.55 43.85-9L43.85-9 44.9-14.85Q45.7-19.35 48.57-22.03 51.45-24.7 56.07-24.7 60.7-24.7 62.35-22.55L62.35-22.55 62.6-24.05 70.2-24.05 67.4-8.3Q67.35-8 67.35-7.7ZM53.2-13.85L52.55-10.1Q52.45-9.65 52.45-8.85 52.45-8.05 53.2-7.28 53.95-6.5 55.72-6.5 57.5-6.5 58.8-7.9L58.8-7.9 60.3-16.3Q59.75-17.55 57.7-17.55L57.7-17.55Q53.85-17.55 53.2-13.85L53.2-13.85ZM97.95-6.4L97.95-6.4Q99.1-6.4 100-6.9L100-6.9 99.75-1.25Q97.4 0.7 94 0.7 90.6 0.7 88.97-1.1 87.35-2.9 86.45-7.15L86.45-7.15 86.3-7.85Q85.25-7.7 83.15-7.6L83.15-7.6 81.8 0 73.3 0 80-37.95 88.5-37.95 85.6-21.5Q88.55-24.75 93.6-24.75L93.6-24.75Q97-24.75 98.62-23.08 100.25-21.4 100.25-18.6L100.25-18.6Q100.25-13.2 94.6-10.15L94.6-10.15 95.15-8.3Q95.7-6.4 97.95-6.4ZM89.3-17.95L89.3-17.95Q86.6-17.95 84.5-15.4L84.5-15.4 83.95-12.1Q91.35-12.4 91.35-16.05L91.35-16.05Q91.35-16.9 90.82-17.43 90.3-17.95 89.3-17.95ZM114.19 0.7L114.19 0.7Q103.79 0.7 103.79-6.5L103.79-6.5Q103.79-7.5 103.99-8.65L103.99-8.65 105.04-14.85Q105.89-19.65 109.47-22.23 113.04-24.8 118.94-24.8L118.94-24.8Q128.99-24.8 128.99-17.2L128.99-17.2Q128.99-16.1 128.79-14.8L128.79-14.8 128.19-11.25 112.94-11.25 112.74-10.1Q112.64-9.5 112.64-9L112.64-9Q112.64-6.25 115.89-6.25L115.89-6.25Q117.09-6.25 117.94-7 118.79-7.75 118.94-8.75L118.94-8.75 127.24-8.65Q125.59 0.7 114.19 0.7ZM113.44-14.3L120.19-14.3Q120.39-15.15 120.39-15.88 120.39-16.6 119.74-17.35 119.09-18.1 117.67-18.1 116.24-18.1 115.07-17.15 113.89-16.2 113.44-14.3L113.44-14.3ZM160.44-10.95L160.44-10.95 154.49-10.95 152.54 0 143.54 0 149.89-36 165.14-36Q170.79-36 173.19-33.4L173.19-33.4Q174.94-31.4 174.94-28.3L174.94-28.3Q174.94-27.25 174.74-26.1L174.74-26.1 173.74-20.45Q172.99-16.3 169.34-13.63 165.69-10.95 160.44-10.95ZM161.99-28.2L161.99-28.2 157.49-28.2 155.84-18.75 160.29-18.75Q164.39-18.75 165.04-22.4L165.04-22.4 165.39-24.45Q165.49-24.9 165.49-25.65 165.49-26.4 164.74-27.3 163.99-28.2 161.99-28.2ZM185.69 0.7L185.69 0.7Q175.29 0.7 175.29-6.5L175.29-6.5Q175.29-7.5 175.49-8.65L175.49-8.65 176.54-14.85Q177.39-19.65 180.96-22.23 184.54-24.8 190.44-24.8L190.44-24.8Q200.49-24.8 200.49-17.2L200.49-17.2Q200.49-16.1 200.29-14.8L200.29-14.8 199.69-11.25 184.44-11.25 184.24-10.1Q184.14-9.5 184.14-9L184.14-9Q184.14-6.25 187.39-6.25L187.39-6.25Q188.59-6.25 189.44-7 190.29-7.75 190.44-8.75L190.44-8.75 198.74-8.65Q197.09 0.7 185.69 0.7ZM184.94-14.3L191.69-14.3Q191.89-15.15 191.89-15.88 191.89-16.6 191.24-17.35 190.59-18.1 189.16-18.1 187.74-18.1 186.56-17.15 185.39-16.2 184.94-14.3L184.94-14.3ZM218.13-24.75L218.13-24.75Q223.53-24.75 226.28-22.4L226.28-22.4Q228.43-20.55 228.43-17.25L228.43-17.25Q228.43-16.15 228.18-14.85L228.18-14.85 227.13-9Q226.18-3.7 222.71-1.5 219.23 0.7 213.43 0.7 207.63 0.7 204.93-1.5L204.93-1.5Q202.93-3.15 202.93-6.45L202.93-6.45Q202.93-7.6 203.18-9L203.18-9 204.23-14.85Q205.98-24.75 218.13-24.75ZM218.83-10.1L219.48-13.85Q219.58-14.35 219.58-15.13 219.58-15.9 218.93-16.85 218.28-17.8 216.66-17.8 215.03-17.8 213.93-16.73 212.83-15.65 212.53-13.85L212.53-13.85 211.88-10.1Q211.78-9.6 211.78-8.83 211.78-8.05 212.43-7.15 213.08-6.25 214.71-6.25 216.33-6.25 217.43-7.38 218.53-8.5 218.83-10.1L218.83-10.1ZM248.73-24.7L248.73-24.7Q253.83-24.7 255.78-22L255.78-22Q257.18-20.15 257.18-17.3L257.18-17.3Q257.18-16.15 256.93-14.85L256.93-14.85 255.93-9Q255.08-4.25 252.28-1.78 249.48 0.7 245.28 0.7 241.08 0.7 239.43-1.55L239.43-1.55 236.73 13.9 228.23 13.9 234.93-24.05 242.63-24.05 242.38-22.7Q244.73-24.7 248.73-24.7ZM243.53-6.5L243.53-6.5Q244.93-6.5 246.13-7.4 247.33-8.3 247.63-10.1L247.63-10.1 248.28-13.85Q248.38-14.35 248.38-15.1 248.38-15.85 247.73-16.7 247.08-17.55 245.48-17.55L245.48-17.55Q242.88-17.55 242.08-16.3L242.08-16.3 240.58-7.9Q241.28-6.5 243.53-6.5ZM269.48-7.7L269.48-7.7Q269.48-6.4 270.8-6.4 272.13-6.4 273.03-6.9L273.03-6.9 272.78-1.25Q270.38 0.7 267.38 0.7L267.38 0.7Q262.83 0.7 261.48-1.4L261.48-1.4Q260.63-2.75 260.63-4.35 260.63-5.95 260.83-7.15L260.83-7.15 266.28-37.95 274.78-37.95 269.53-8.3Q269.48-8 269.48-7.7ZM286.23 0.7L286.23 0.7Q275.83 0.7 275.83-6.5L275.83-6.5Q275.83-7.5 276.03-8.65L276.03-8.65 277.08-14.85Q277.93-19.65 281.5-22.23 285.08-24.8 290.98-24.8L290.98-24.8Q301.03-24.8 301.03-17.2L301.03-17.2Q301.03-16.1 300.83-14.8L300.83-14.8 300.23-11.25 284.98-11.25 284.78-10.1Q284.68-9.5 284.68-9L284.68-9Q284.68-6.25 287.93-6.25L287.93-6.25Q289.13-6.25 289.98-7 290.83-7.75 290.98-8.75L290.98-8.75 299.28-8.65Q297.63 0.7 286.23 0.7ZM285.48-14.3L292.23-14.3Q292.43-15.15 292.43-15.88 292.43-16.6 291.78-17.35 291.13-18.1 289.7-18.1 288.28-18.1 287.1-17.15 285.93-16.2 285.48-14.3L285.48-14.3ZM321.92-36L336.42-36Q342.12-36 344.52-33.5L344.52-33.5Q346.32-31.6 346.32-28.7L346.32-28.7Q346.32-27.7 346.12-26.6L346.12-26.6 345.67-24.2Q345.12-21.35 343.55-19.75 341.97-18.15 340.77-18.15L340.77-18.15 340.72-17.75Q342.12-17.75 343.57-16.2 345.02-14.65 345.02-12.55L345.02-12.55Q345.02-11.7 344.82-10.75L344.82-10.75 344.52-9.2Q343.72-4.9 340.7-2.45 337.67 0 332.27 0L332.27 0 315.57 0 321.92-36ZM331.92-14.7L331.92-14.7 327.17-14.7 325.97-7.8 330.72-7.8Q330.82-7.8 330.92-7.8L330.92-7.8Q333.22-7.8 334.57-8.88 335.92-9.95 335.92-11.5L335.92-11.5Q335.92-14.7 331.92-14.7ZM333.27-28.2L333.27-28.2 329.52-28.2 328.22-20.75 331.92-20.75Q336.72-20.75 336.72-24.95L336.72-24.95Q336.72-26.4 335.85-27.3 334.97-28.2 333.27-28.2ZM358.67 0.7L358.67 0.7Q348.27 0.7 348.27-6.5L348.27-6.5Q348.27-7.5 348.47-8.65L348.47-8.65 349.52-14.85Q350.37-19.65 353.94-22.23 357.52-24.8 363.42-24.8L363.42-24.8Q373.47-24.8 373.47-17.2L373.47-17.2Q373.47-16.1 373.27-14.8L373.27-14.8 372.67-11.25 357.42-11.25 357.22-10.1Q357.12-9.5 357.12-9L357.12-9Q357.12-6.25 360.37-6.25L360.37-6.25Q361.57-6.25 362.42-7 363.27-7.75 363.42-8.75L363.42-8.75 371.72-8.65Q370.07 0.7 358.67 0.7ZM357.92-14.3L364.67-14.3Q364.87-15.15 364.87-15.88 364.87-16.6 364.22-17.35 363.57-18.1 362.14-18.1 360.72-18.1 359.54-17.15 358.37-16.2 357.92-14.3L357.92-14.3ZM386.87 0.7L386.87 0.7Q381.07 0.7 378.52-1.9L378.52-1.9Q376.62-3.8 376.62-7L376.62-7Q376.62-8.05 376.82-9.25L376.82-9.25 380.22-28.6 389.37-32.4 387.92-24.05 401.72-24.05 400.47-17 386.67-17 385.67-11.35Q385.47-10.4 385.47-9.65L385.47-9.65Q385.47-6.5 388.47-6.5L388.47-6.5Q390.07-6.5 391.14-7.85 392.22-9.2 392.62-11.45L392.62-11.45 400.92-11.45Q398.82 0.7 386.87 0.7ZM414.31 0.7L414.31 0.7Q408.51 0.7 405.96-1.9L405.96-1.9Q404.06-3.8 404.06-7L404.06-7Q404.06-8.05 404.26-9.25L404.26-9.25 407.66-28.6 416.81-32.4 415.36-24.05 429.16-24.05 427.91-17 414.11-17 413.11-11.35Q412.91-10.4 412.91-9.65L412.91-9.65Q412.91-6.5 415.91-6.5L415.91-6.5Q417.51-6.5 418.59-7.85 419.66-9.2 420.06-11.45L420.06-11.45 428.36-11.45Q426.26 0.7 414.31 0.7ZM441.16 0.7L441.16 0.7Q430.76 0.7 430.76-6.5L430.76-6.5Q430.76-7.5 430.96-8.65L430.96-8.65 432.01-14.85Q432.86-19.65 436.44-22.23 440.01-24.8 445.91-24.8L445.91-24.8Q455.96-24.8 455.96-17.2L455.96-17.2Q455.96-16.1 455.76-14.8L455.76-14.8 455.16-11.25 439.91-11.25 439.71-10.1Q439.61-9.5 439.61-9L439.61-9Q439.61-6.25 442.86-6.25L442.86-6.25Q444.06-6.25 444.91-7 445.76-7.75 445.91-8.75L445.91-8.75 454.21-8.65Q452.56 0.7 441.16 0.7ZM440.41-14.3L447.16-14.3Q447.36-15.15 447.36-15.88 447.36-16.6 446.71-17.35 446.06-18.1 444.64-18.1 443.21-18.1 442.04-17.15 440.86-16.2 440.41-14.3L440.41-14.3ZM482.91-18.95L482.91-18.95Q482.91-17.25 482.33-15.65 481.76-14.05 481.21-13.3L481.21-13.3 480.66-12.6 473.11-12.6Q474.36-13.75 474.36-15.45L474.36-15.45Q474.36-16.35 473.78-16.93 473.21-17.5 472.21-17.5L472.21-17.5Q470.51-17.5 469.26-15.8L469.26-15.8 466.46 0 457.96 0 462.21-24.05 470.11-24.05 469.51-20.7Q472.36-24.75 476.41-24.75L476.41-24.75Q479.66-24.75 481.28-23.2 482.91-21.65 482.91-18.95Z" opacity="1" transform="matrix(1,0,0,1,0,0)" fill="#77d4fc" class="undefined-text-1" data-fill-palette-color="secondary" id="text-1"></path></svg></g></svg></g></svg></g></svg></g><g></g></svg></g><defs></defs></svg><rect width="395.52" height="92.36895867952903" fill="none" stroke="none" visibility="hidden"></rect></g></svg></g></svg>